  0
SECTION
  2
HEADER
  9
$ACADVER
  1
AC1027
  0
ENDSEC
  0
SECTION
  2
BLOCKS
  0
BLOCK
  2
ARCBLOCK
 70
0
 10
1
 20
1
 30
0
  0
LWPOLYLINE
 90
2
 70
1
 10
1
 20
1
 42
0
 10
4
 20
3
 42
-1.5
  0
LINE
 10
1
 20
1
 30
0
 11
4
 21
3
 31
0
  0
ENDBLK
  0
BLOCK
  2
WRAPPER
 70
0
 10
0
 20
0
 30
0
  0
INSERT
  2
ARCBLOCK
 10
0
 20
0
 30
0
 41
1
 42
1
 43
1
 50
0
  0
ENDBLK
  0
ENDSEC
  0
SECTION
  2
ENTITIES
  0
INSERT
  2
WRAPPER
 10
10
 20
0
 30
0
 41
1
 42
1
 43
1
 50
0
  0
INSERT
  2
WRAPPER
 10
22
 20
0
 30
0
 41
-1
 42
1.5
 43
1
 50
0
  0
INSERT
  2
WRAPPER
 10
34
 20
0
 30
0
 41
0.75
 42
-2
 43
1
 50
0
  0
ENDSEC
  0
EOF
